<svg width="1280" height="720" viewBox="0 0 1280 720" xmlns="http://www.w3.org/2000/svg">
  <defs>
    <linearGradient id="bg" x1="0" y1="0" x2="0" y2="1">
      <stop offset="0%" stop-color="#0f2f40"/>
      <stop offset="100%" stop-color="#04070b"/>
    </linearGradient>
    <linearGradient id="accent" x1="0" y1="0" x2="1" y2="0">
      <stop offset="0%" stop-color="#11b4ff"/>
      <stop offset="100%" stop-color="#39ffb4"/>
    </linearGradient>
  </defs>
  <rect width="1280" height="720" fill="url(#bg)"/>
  <rect x="290" y="130" width="700" height="390" rx="30" fill="#111926" stroke="#3f5a73" stroke-width="4"/>
  <rect x="315" y="155" width="650" height="45" rx="16" fill="#1b2a3a"/>
  <rect x="315" y="215" width="650" height="150" rx="16" fill="#1b2a3a"/>
  <rect x="315" y="380" width="650" height="110" rx="16" fill="#1b2a3a"/>
  <circle cx="345" cy="178" r="9" fill="#11b4ff"/>
  <text x="365" y="185" fill="#dbeeff" font-family="Arial, sans-serif" font-size="24" font-weight="700">Mouse Jiggler</text>
  <text x="765" y="185" fill="#69ffcc" font-family="Arial, sans-serif" font-size="18" font-weight="700">BLE CONNECTED</text>
  <rect x="340" y="255" width="185" height="46" rx="23" fill="#39ffb4"/>
  <text x="392" y="286" fill="#0b131a" font-family="Arial, sans-serif" font-size="28" font-weight="900">ACTIVE</text>
  <text x="560" y="286" fill="#ffffff" font-family="Arial, sans-serif" font-size="52" font-weight="900">ON</text>
  <text x="340" y="335" fill="#cde2f3" font-family="Arial, sans-serif" font-size="22">BAT 83%</text>
  <text x="760" y="335" fill="#cde2f3" font-family="Arial, sans-serif" font-size="22">NEXT 12s</text>
  <text x="340" y="430" fill="#ffffff" font-family="Arial, sans-serif" font-size="30" font-weight="700">INT 30s</text>
  <text x="570" y="430" fill="#ffffff" font-family="Arial, sans-serif" font-size="30" font-weight="700">DIST 25px</text>
  <text x="340" y="468" fill="#ffca5f" font-family="Arial, sans-serif" font-size="20">Display lock: AUTO</text>
  <rect x="318" y="532" width="644" height="22" rx="11" fill="#273648"/>
  <rect x="318" y="532" width="440" height="22" rx="11" fill="url(#accent)"/>
  <text x="322" y="590" fill="#a9bfd4" font-family="Arial, sans-serif" font-size="20">A Toggle/Hold Dist | B Interval/Hold Screen</text>
</svg>
